<svg xmlns="http://www.w3.org/2000/svg" width="221.916" height="49.167" viewBox="0 0 221.916 49.167"><g id="Logo_Kertios_Sans_signat_cmjn_Blanc_" data-name="Logo_Kertios_Sans signat_cmjn (Blanc)" transform="translate(110.958 24.583)"><g id="Groupe_258" data-name="Groupe 258" transform="translate(-110.958 -24.583)"><g id="Groupe_245" data-name="Groupe 245" transform="translate(72.65 17.85)"><g id="Groupe_244" data-name="Groupe 244" transform="translate(0)"><path id="Trac&#xE9;_239" data-name="Trac&#xE9; 239" d="M143.767,44.753v-.086a9.484,9.484,0,0,0-2.59-6.906c-1.985-1.986-4.964-3.064-8.805-3.064H121.884a3.323,3.323,0,0,0-3.324,3.323V64.764a.466.466,0,0,0,.466.466h5.715a.466.466,0,0,0,.466-.466V40.7h6.6c3.237,0,5.222,1.467,5.222,4.316V45.1c0,2.546-1.856,4.273-5.093,4.273-2.9,0-3.64,3.587-1.425,5.87l6.775,8.826a3.98,3.98,0,0,0,3.281,1.727,3.092,3.092,0,0,0,3.15-3.064,3.875,3.875,0,0,0-1.079-2.546l-4.919-6.237A9.222,9.222,0,0,0,143.767,44.753Z" transform="translate(-118.56 -34.697)" fill="#fff"></path></g></g><g id="Groupe_247" data-name="Groupe 247" transform="translate(105.759 17.85)"><g id="Groupe_246" data-name="Groupe 246" transform="translate(0)"><path id="Trac&#xE9;_240" data-name="Trac&#xE9; 240" d="M179.208,34.7H159.926a3.164,3.164,0,0,0-3.142,2.443,3.074,3.074,0,0,0,3,3.686h6.388v23.7a.466.466,0,0,0,.466.467h5.715a.467.467,0,0,0,.466-.467v-23.7h6.247a3.165,3.165,0,0,0,3.143-2.443A3.074,3.074,0,0,0,179.208,34.7Z" transform="translate(-156.721 -34.697)" fill="#fff"></path></g></g><g id="Groupe_249" data-name="Groupe 249" transform="translate(140.766 17.961)"><g id="Groupe_248" data-name="Groupe 248"><path id="Trac&#xE9;_241" data-name="Trac&#xE9; 241" d="M197.58,34.824a.568.568,0,0,0-.51.509V61.7a3.427,3.427,0,0,0,3.18,3.478,3.3,3.3,0,0,0,3.468-3.32V35.333a.528.528,0,0,0-.51-.509Z" transform="translate(-197.07 -34.824)" fill="#fff"></path></g></g><g id="Groupe_251" data-name="Groupe 251" transform="translate(39.412 17.85)"><g id="Groupe_250" data-name="Groupe 250" transform="translate(0)"><path id="Trac&#xE9;_242" data-name="Trac&#xE9; 242" d="M100.758,59h-13.9V52.652h11.4a3.047,3.047,0,0,0,3.1-2.79,2.984,2.984,0,0,0-2.974-3.123H86.854V40.61H101.1a.465.465,0,0,0,.466-.466V35.163a.465.465,0,0,0-.466-.466H83.574A3.323,3.323,0,0,0,80.25,38.02V61.587a3.323,3.323,0,0,0,3.324,3.323h17.184a.465.465,0,0,0,.466-.466V59.463A.465.465,0,0,0,100.758,59Z" transform="translate(-80.25 -34.697)" fill="#fff"></path></g></g><g id="Groupe_253" data-name="Groupe 253" transform="translate(157.781 17.39)"><g id="Groupe_252" data-name="Groupe 252" transform="translate(0)"><path id="Trac&#xE9;_243" data-name="Trac&#xE9; 243" d="M216.682,49.877V49.79c0-8.589,6.777-15.624,16.1-15.624s16.013,6.949,16.013,15.538v.086c0,8.589-6.776,15.625-16.1,15.625S216.682,58.466,216.682,49.877Zm25.164,0V49.79a9.18,9.18,0,0,0-9.151-9.5c-5.352,0-9.064,4.23-9.064,9.41v.086a9.179,9.179,0,0,0,9.15,9.5C238.134,59.286,241.846,55.055,241.846,49.877Z" transform="translate(-216.682 -34.166)" fill="#fff"></path></g></g><g id="Groupe_254" data-name="Groupe 254" transform="translate(197.626 17.418)"><path id="Trac&#xE9;_244" data-name="Trac&#xE9; 244" d="M277.315,46.759c-5.223-1.338-6.517-1.985-6.517-3.971V42.7c0-1.467,1.338-2.632,3.884-2.632a12.575,12.575,0,0,1,6.345,2.028,3.19,3.19,0,0,0,1.618.475,3.076,3.076,0,0,0,1.706-5.7,17.54,17.54,0,0,0-9.582-2.677c-6.172,0-10.575,3.626-10.575,9.107v.087c0,6,3.928,7.683,10.014,9.237,5.049,1.294,6.085,2.158,6.085,3.841v.087c0,1.77-1.64,2.848-4.359,2.848a12.937,12.937,0,0,1-7.726-2.719c-.452-.335-.853-.653-1.214-.957a.927.927,0,0,0-1.3.1l-2.856,3.3a.933.933,0,0,0,.078,1.3,17.438,17.438,0,0,0,1.54,1.216A19.5,19.5,0,0,0,275.8,65.276c6.517,0,11.092-3.366,11.092-9.366v-.087C286.9,50.558,283.444,48.357,277.315,46.759Z" transform="translate(-262.607 -34.199)" fill="#fff"></path></g><g id="Groupe_255" data-name="Groupe 255"><path id="Trac&#xE9;_245" data-name="Trac&#xE9; 245" d="M38.5,63.289a3.337,3.337,0,0,1-3.334-3.334l-.344-25.126a3.662,3.662,0,1,1,7.324,0l-.313,14.65c7.46-9.582,21.478-24.9,41.182-34.988a3.334,3.334,0,1,1,3.04,5.935c-28.129,14.407-44.544,41-44.707,41.262A3.338,3.338,0,0,1,38.5,63.289Z" transform="translate(-34.824 -14.123)" fill="#fff"></path></g><g id="Groupe_257" data-name="Groupe 257" transform="translate(15.431 35.533)"><g id="Groupe_256" data-name="Groupe 256" transform="translate(0)"><path id="Trac&#xE9;_246" data-name="Trac&#xE9; 246" d="M66.473,66.868l-9.179-11.6a.54.54,0,0,0-.816-.014,51.245,51.245,0,0,0-3.758,4.368.52.52,0,0,0,0,.646l5.543,6.961a1.264,1.264,0,0,0,.993.482h6.8A.524.524,0,0,0,66.473,66.868Z" transform="translate(-52.609 -55.077)" fill="#fff"></path></g></g></g></g></svg>
